<svg xmlns="http://www.w3.org/2000/svg" width="24" height="24" viewBox="0 0 24 24" fill="none" stroke="currentColor" stroke-width="2" stroke-linecap="round" stroke-linejoin="round">
  <path d="M16 12a4 4 0 0 1 4 4c0 1.1-.5 2.1-1.3 2.8l.8 2.2-2.5-1c-.3.1-.7.1-1 .1-2.2 0-4-1.8-4-4 0-2.2 1.8-4 4-4z"/>
  <path d="M9 3C4.6 3 1 6.1 1 10c0 2.2 1.2 4.2 3 5.4L3 18l3.6-1.4c.8.2 1.6.4 2.4.4 4.4 0 8-3.1 8-7s-3.6-7-8-7z"/>
  <circle cx="6.5" cy="8.5" r="1" fill="currentColor" stroke="none"/>
  <circle cx="11.5" cy="8.5" r="1" fill="currentColor" stroke="none"/>
  <circle cx="15" cy="15" r="0.8" fill="currentColor" stroke="none"/>
  <circle cx="17.5" cy="15" r="0.8" fill="currentColor" stroke="none"/>
</svg>
