<?xml version="1.0" encoding="utf-8"?>
<!-- Generator: Adobe Illustrator 27.0.0, SVG Export Plug-In . SVG Version: 6.00 Build 0)  -->
<svg version="1.1" id="图层_1" xmlns="http://www.w3.org/2000/svg" xmlns:xlink="http://www.w3.org/1999/xlink" x="0px" y="0px"
	 viewBox="0 0 800 800" style="enable-background:new 0 0 800 800;" xml:space="preserve">
<g transform="translate(181.721914,632.018532) scale(0.056336,-0.056336)">
	<path d="M1472.3,9058.9c-411.5-74.3-768.6-393-1060.7-943.9c-386.3-730.1-608-1716.5-673.1-2984.3l-15.9-312l-82.3-119.5
		C-746,4139.1-929.2,3435.5-872.2,2729.2c45.1-572.2,213.7-1024.9,552.3-1485.5c21.2-27.9,18.6-33.2-53.1-135.4
		c-159.3-227-264.2-540.3-298.7-889.4c-22.6-216.4,0-365.1,73-495.2c41.2-73,142-169.9,216.4-208.4
		c115.5-58.4,319.9-83.6,463.3-55.8c53.1,10.6,58.4,8,119.5-45.1c189.8-165.9,426.1-217.7,646.5-142l78.3,26.6l61.1-38.5
		c188.5-120.8,466-120.8,651.8-1.3c58.4,37.2,165.9,140.7,205.8,199.1c18.6,25.2,33.2,29.2,106.2,29.2c155.3,0,308,65,420.8,181.9
		l63.7,65l175.2-29.2c96.9-17.3,298.7-42.5,448.7-57.1c735.5-74.3,1423.1-61.1,2149.3,42.5l205.8,29.2l67.7-67.7
		c108.9-108.9,233.6-160.6,411.5-168.6c79.7-4,81-5.3,159.3-88.9c107.5-112.8,212.4-179.2,325.2-204.4
		c168.6-38.5,288.1-21.2,447.4,65l81,45.1l71.7-27.9c102.2-39.8,289.4-47.8,383.7-17.3c115.5,37.2,197.8,85,270.8,152.7
		c65,62.4,69,65,119.5,53.1c78.3-18.6,240.3-15.9,339.8,5.3c112.8,23.9,184.5,61.1,264.2,135.4c118.2,110.2,172.6,258.9,172.6,469.9
		c-1.3,398.3-151.3,841.7-379.7,1121.8L8094,1261l77,123.5c451.4,718.2,573.5,1538.6,355.8,2390.9
		c-86.3,331.9-240.3,651.8-459.3,951.8c-67.7,91.6-70.4,98.2-70.4,181.9c0,92.9-31.9,509.8-53.1,711.6
		c-120.8,1089.9-410.2,1992.6-835,2602c-290.7,416.8-661.1,704.9-1003.6,777.9c-108.9,23.9-323.9,26.6-406.2,5.3
		c-286.7-73-496.5-244.3-740.8-604c-159.3-233.6-365.1-635.9-505.8-987.7l-43.8-111.5l-94.3,9.3c-354.5,34.5-756.7,43.8-997,21.2
		c-85-6.6-123.5-6.6-134.1,5.3c-8,8-46.5,86.3-86.3,173.9c-91.6,207.1-246.9,509.8-347.8,677c-289.4,481.9-566.9,747.4-878.8,843
		C1765.7,9064.2,1573.2,9077.5,1472.3,9058.9z M1820.1,8554.5c258.9-127.4,576.2-600,905.4-1352.8
		c114.2-260.2,122.1-272.1,197.8-316c70.4-41.2,123.5-43.8,347.8-19.9c304,31.9,723.5,19.9,1115.1-31.9
		c209.8-27.9,253.6-21.2,325.2,51.8c43.8,43.8,70.4,92.9,126.1,235c239,606.7,485.9,1051.4,703.6,1270.5
		c130.1,131.4,209.8,168.6,351.8,168.6c196.5-2.7,386.3-103.5,604-323.9c570.8-578.8,934.6-1693.9,1022.2-3146.3
		c26.6-428.8,23.9-420.8,123.5-554.9c337.2-456.7,489.9-888.1,521.7-1476.2c23.9-440.7-107.5-977.1-323.9-1319.6
		c-139.4-221.7-127.4-209.8-180.5-187.2c-87.6,37.2-278.8,62.4-459.3,62.4c-609.3-2.7-1197.4-265.5-1547.9-694.3
		c-147.4-180.5-284.1-456.7-325.2-658.5c-10.6-53.1-25.2-86.3-37.2-88.9c-42.5-11.9-424.8-61.1-626.6-81
		C4054.3,34.3,3271.1,62.2,2675,161.8l-136.7,22.6l-33.2,126.1c-17.3,69-57.1,180.5-88.9,245.6
		c-245.6,520.4-699.6,864.2-1330.2,1010.3c-134.1,30.5-196.5,37.2-410.2,42.5c-224.4,5.3-265.5,2.7-370.4-22.6
		c-65-15.9-143.4-39.8-173.9-53.1l-57.1-25.2l-33.2,34.5c-50.4,53.1-176.6,258.9-237.6,387.6c-227,476.6-278.8,1058-150,1672.7
		c57.1,274.8,199.1,589.4,399.6,889.4l128.8,191.2l17.3,339.8c21.2,419.5,38.5,621.3,73,902.7c30.5,246.9,104.9,674.4,146,847
		c29.2,123.5,138.1,501.8,158,550.9c6.6,15.9,39.8,103.5,74.3,195.1c81,212.4,204.4,456.7,316,621.3
		c95.6,143.4,270.8,322.6,370.4,381C1506.8,8619.5,1664.8,8630.1,1820.1,8554.5z M937.3,1128.2c116.8-22.6,312-86.3,415.5-134.1
		c179.2-85,373-237.6,493.8-387.6c115.5-144.7,229.7-402.2,229.7-519.1c0-47.8-35.8-106.2-79.7-128.8
		c-59.7-30.5-191.2-21.2-351.8,26.6c-22.6,6.6-34.5-8-78.3-99.6c-30.5-65-78.3-136.7-119.5-179.2c-63.7-67.7-73-73-127.4-73
		c-87.6,1.3-163.3,41.2-272.1,146c-83.6,81-98.2,91.6-112.8,73c-9.3-10.6-57.1-47.8-107.5-81C634.6-356,495.2-306.8,386.3-70.5
		c-33.2,73-25.2,71.7-221.7,17.3C85-74.5,5.3-87.8-51.7-87.8c-83.6,0-94.3,2.7-131.4,41.2l-41.2,39.8l9.3,122.1
		c18.6,253.6,96.9,529.7,195.1,693c106.2,179.2,289.4,310.6,469.9,338.5C552.3,1162.7,808.5,1152.1,937.3,1128.2z M7391.7,1141.5
		c272.1-53.1,459.3-241.6,584.1-589.4c43.8-122.1,87.6-365.1,87.6-483.2c0-79.7-4-95.6-33.2-123.5c-27.9-29.2-43.8-33.2-127.4-33.2
		c-96.9,0-204.4,22.6-327.9,67.7c-38.5,13.3-73,25.2-75.7,25.2c-4,0-22.6-31.9-41.2-69c-87.6-173.9-158-236.3-266.8-236.3
		c-77,0-160.6,39.8-258.9,122.1l-63.7,53.1l-92.9-87.6c-185.9-175.2-290.7-189.8-404.9-57.1c-34.5,41.2-111.5,173.9-147.4,258.9
		c-1.3,2.7-63.7-9.3-139.4-23.9c-169.9-35.8-231-29.2-280.1,26.6c-45.1,49.1-46.5,91.6-10.6,223c126.1,452.7,564.2,812.5,1108.5,912
		C7106.3,1164.1,7249.7,1168,7391.7,1141.5z"/>
	<path d="M1485.5,7888c-375.7-140.7-731.5-985-829.7-1970.1c-22.6-219-14.6-308,31.9-369.1c90.3-118.2,239-122.1,359.8-10.6
		c57.1,53.1,484.6,404.9,617.3,508.4c62.4,47.8,239,177.9,391.6,288.1c301.4,215.1,333.2,244.3,381,334.5
		c23.9,47.8,30.5,81,30.5,165.9c0,100.9-4,112.8-62.4,228.3c-179.2,350.5-455.3,708.9-610.7,793.9c-55.8,30.5-88.9,38.5-169.9,42.5
		C1570.5,7901.3,1508.1,7897.3,1485.5,7888z M1708.6,7296c85-115.5,179.2-258.9,249.6-375.7l35.8-61.1l-102.2-70.4
		c-136.7-95.6-533.7-394.3-631.9-475.3c-43.8-37.2-81-65-83.6-63.7c-6.6,8,61.1,308,102.2,452.7c71.7,246.9,175.2,488.5,276.1,641.2
		c25.2,37.2,50.4,69,57.1,69S1660.8,7359.7,1708.6,7296z"/>
	<path d="M5887.6,7857.5c-82.3-35.8-173.9-114.2-269.5-231c-215.1-258.9-422.2-629.3-432.8-770c-11.9-171.3,54.4-268.2,306.7-448.7
		c432.8-309.3,764.7-562.9,1078-825.7c82.3-67.7,167.3-127.4,195.1-136.7c92.9-27.9,203.1,18.6,254.9,108.9
		c33.2,55.8,34.5,160.6,1.3,411.5c-116.8,909.4-458,1691.3-815.1,1869.2c-71.7,35.8-99.6,42.5-179.2,42.5
		C5975.3,7876.1,5912.9,7868.1,5887.6,7857.5z M6158.5,7225.6c118.2-195.1,225.7-479.2,304-805.8c43.8-185.9,43.8-188.5,14.6-164.6
		c-209.8,159.3-523,391.6-646.5,479.2c-86.3,61.1-156.6,115.5-156.6,123.5c0,34.5,201.8,351.8,294.7,463.3l67.7,81l30.5-37.2
		C6082.8,7343.7,6124,7281.3,6158.5,7225.6z"/>
	<path d="M2120.1,4240c-300-54.4-454-242.9-330.6-404.9c50.4-65,114.2-110.2,200.5-140.7c273.5-95.6,627.9-31.9,762,139.4
		c108.9,138.1,5.3,305.3-235,381C2414.8,4245.3,2223.7,4258.6,2120.1,4240z"/>
	<path d="M5306.2,4238.6c-165.9-27.9-301.4-106.2-347.8-200.5c-35.8-74.3-34.5-110.2,2.7-176.6c61.1-107.5,199.1-179.2,398.3-205.8
		c285.4-38.5,584.1,85,625.3,256.2C6033.7,4120.5,5663.3,4298.4,5306.2,4238.6z"/>
	<path d="M3693.2,3728.9c-235-50.4-404.9-173.9-456.7-329.2c-82.3-249.6,154-487.2,541.6-541.6c91.6-11.9,130.1-10.6,232.3,6.6
		c227,39.8,375.7,120.8,464.6,254.9c42.5,65,50.4,87.6,54.4,165.9c4,73,0,102.2-23.9,150C4395.5,3662.5,4015.8,3800.6,3693.2,3728.9
		z"/>
	<path d="M2388.3,2950.9c-131.4-39.8-189.8-193.8-123.5-326.6c30.5-59.7,175.2-208.4,244.3-248.2l38.5-22.6l1.3-268.2
		c0-224.4,4-288.1,27.9-389c61.1-257.5,169.9-468.6,334.5-645.2C3378.6,550.7,4215,489.7,4771.2,915.8
		c215.1,164.6,386.3,432.8,459.3,715.5c38.5,151.3,55.8,451.4,35.8,612l-11.9,94.3l99.6,79.7c184.5,144.7,248.2,282.8,187.2,408.9
		c-39.8,82.3-106.2,126.1-189.8,126.1c-81,0-100.9-10.6-213.7-116.8c-103.5-96.9-187.2-140.7-329.2-169.9
		c-123.5-26.6-232.3-18.6-493.8,37.2c-179.2,38.5-223,42.5-419.5,42.5c-197.8,0-239-4-424.8-45.1c-262.9-55.8-427.5-61.1-560.2-15.9
		c-98.2,34.5-154,71.7-265.5,177.9c-45.1,42.5-96.9,78.3-127.4,87.6C2457.3,2968.2,2444,2968.2,2388.3,2950.9z M4250.8,2246
		c143.4-31.9,221.7-42.5,371.7-47.8l188.5-5.3v-143.4c0-473.9-213.7-791.2-617.3-916c-317.3-96.9-698.3-10.6-918.7,209.8
		c-184.5,184.5-268.2,407.6-269.5,723.5v128.8h150c103.5,0,184.5,9.3,268.2,27.9c244.3,57.1,282.8,62.4,462,63.7
		C4045,2288.5,4090.2,2283.2,4250.8,2246z"/>
</g>
</svg>
