<?xml version="1.0" standalone="no"?><!DOCTYPE svg PUBLIC "-//W3C//DTD SVG 1.1//EN" "http://www.w3.org/Graphics/SVG/1.1/DTD/svg11.dtd"><svg t="1771637157421" class="icon" viewBox="0 0 1024 1024" version="1.1" xmlns="http://www.w3.org/2000/svg" p-id="26454" xmlns:xlink="http://www.w3.org/1999/xlink" width="200" height="200"><path d="M752 138.688h-480c-113.472 0-176 62.464-176 176V704c0 113.472 62.528 176 176 176h480c113.472 0 176-62.528 176-176V314.688c0-113.536-62.528-176-176-176zM864 704c0 78.528-33.472 112-112 112h-480c-78.528 0-112-33.472-112-112V314.688c0-78.528 33.472-112 112-112h480c78.528 0 112 33.472 112 112V704z" p-id="26455"></path><path d="M704 266.688H533.312c-60.16 0-96 35.84-96 96v298.624c0 60.16 35.84 96 96 96H704c60.096 0 96-35.84 96-96V362.688c0-60.16-35.904-96-96-96z m32 394.624c0 25.152-6.912 32-32 32H533.312c-25.152 0-32-6.848-32-32V362.688c0-25.152 6.848-32 32-32H704c25.088 0 32 6.848 32 32v298.624z" p-id="26456"></path></svg>